<svg width="16" height="16" viewBox="0 0 16 16" fill="none" xmlns="http://www.w3.org/2000/svg">
<rect width="16" height="16" rx="1" fill="#3C5B58"/>
<path d="M4.624 12L4.504 11.88C4.488 11.832 4.476 11.78 4.468 11.724C4.468 11.668 4.468 11.62 4.468 11.58C4.468 11.404 4.5 11.244 4.564 11.1C4.628 10.948 4.712 10.788 4.816 10.62L8.908 4.248L9.208 4.848H4.576V3.36H10.696L10.816 3.48C10.824 3.52 10.832 3.572 10.84 3.636C10.848 3.692 10.852 3.74 10.852 3.78C10.852 3.956 10.82 4.12 10.756 4.272C10.692 4.424 10.604 4.58 10.492 4.74L6.4 11.112L6.1 10.512H10.936V12H4.624Z" fill="white"/>
</svg>
